<svg width="16" height="15" viewBox="0 0 16 15" fill="none" xmlns="http://www.w3.org/2000/svg">
<path d="M9.25 6.25V10.625M6.75 6.25V10.625M4.25 3.75V11.125C4.25 11.8251 4.25 12.1749 4.38624 12.4422C4.50608 12.6774 4.69717 12.869 4.93237 12.9889C5.1995 13.125 5.54937 13.125 6.24807 13.125H9.75193C10.4506 13.125 10.8 13.125 11.0671 12.9889C11.3023 12.869 11.494 12.6774 11.6139 12.4422C11.75 12.1751 11.75 11.8256 11.75 11.1269V3.75M4.25 3.75H5.5M4.25 3.75H3M5.5 3.75H10.5M5.5 3.75C5.5 3.16757 5.5 2.8765 5.59515 2.64679C5.72202 2.3405 5.9652 2.09702 6.27148 1.97015C6.5012 1.875 6.79257 1.875 7.375 1.875H8.625C9.20743 1.875 9.49864 1.875 9.72835 1.97015C10.0346 2.09702 10.2779 2.3405 10.4048 2.64679C10.4999 2.8765 10.5 3.16757 10.5 3.75M10.5 3.75H11.75M11.75 3.75H13" stroke="#2C2D2C" stroke-width="0.694444" stroke-linecap="round" stroke-linejoin="round"/>
</svg>
